<svg xmlns="http://www.w3.org/2000/svg" width="540" height="1200" viewBox="0 0 540 1200">
  <defs>
    <linearGradient id="bg" x1="0%" y1="0%" x2="100%" y2="100%">
      <stop offset="0%" stop-color="#fdfdff" />
      <stop offset="100%" stop-color="#eefbf8" />
    </linearGradient>
    <linearGradient id="cta" x1="0%" y1="0%" x2="100%" y2="0%">
      <stop offset="0%" stop-color="#7c3aed" />
      <stop offset="100%" stop-color="#d946ef" />
    </linearGradient>
  </defs>
  <rect width="540" height="1200" fill="url(#bg)" />
  <rect x="30" y="24" width="480" height="1152" rx="36" fill="#ffffff" stroke="#dbe4ea" />
  <rect x="30" y="24" width="480" height="96" rx="36" fill="#0f766e" />
  <text x="66" y="82" font-family="Arial, Helvetica, sans-serif" font-size="30" font-weight="700" fill="#ffffff">Active Rentals</text>
  <rect x="58" y="154" width="424" height="60" rx="18" fill="#f8fafc" stroke="#e2e8f0" />
  <rect x="58" y="244" width="424" height="184" rx="24" fill="#ffffff" stroke="#e2e8f0" />
  <rect x="58" y="452" width="424" height="184" rx="24" fill="#ffffff" stroke="#e2e8f0" />
  <rect x="58" y="660" width="424" height="184" rx="24" fill="#ffffff" stroke="#e2e8f0" />
  <rect x="94" y="304" width="352" height="50" rx="18" fill="#f8fafc" stroke="#e2e8f0" />
  <rect x="94" y="368" width="352" height="28" rx="10" fill="url(#cta)" />
  <rect x="94" y="512" width="352" height="50" rx="18" fill="#f8fafc" stroke="#e2e8f0" />
  <rect x="94" y="576" width="352" height="28" rx="10" fill="url(#cta)" />
  <rect x="94" y="720" width="352" height="50" rx="18" fill="#f8fafc" stroke="#e2e8f0" />
  <rect x="94" y="784" width="352" height="28" rx="10" fill="url(#cta)" />
  <rect x="86" y="1080" width="368" height="72" rx="30" fill="#0f766e" />
</svg>
